<svg xmlns="http://www.w3.org/2000/svg" width="17" height="17" viewBox="0 0 17 17">
 <path fill-rule="evenodd" fill="#000000" d="M901.9,83.195a7.573,7.573,0,0,0-3.144-11.739,7.188,7.188,0,0,0-8.175,2.361,7.742,7.742,0,0,0-.534,8.57,7.281,7.281,0,0,0,7.609,3.46,7.183,7.183,0,0,0,3.71-2.037l3.962,4.074a0.406,0.406,0,0,0,.566-0.581Zm-3.458,1.585a6.467,6.467,0,0,1-7.2-2.038,6.95,6.95,0,0,1-.6-7.665,6.448,6.448,0,0,1,6.886-3.136A6.731,6.731,0,0,1,898.44,84.779Z" transform="translate(-889 -71)"/>
</svg>
